<svg width="383" height="245" viewBox="0 0 383 245" fill="none" xmlns="http://www.w3.org/2000/svg">
<path d="M203 11V0L287 49L212 94V167.5L278 130L287 136L201.5 185L203 88L268 49L203 11Z" fill="#D9D9D9"/>
<path d="M181.5 11V0L96 49L172 92.5V167.5L106 130L98.5 136L181.5 185V88L117 49L181.5 11Z" fill="#D9D9D9"/>
<path d="M80.7428 244.469C79.0397 244.469 77.4694 244.031 76.0319 243.156C74.61 242.281 73.4694 241.117 72.61 239.664C71.7663 238.195 71.3444 236.586 71.3444 234.836V232.633C71.3444 232.461 71.4225 232.375 71.5788 232.375H76.9694C77.0944 232.375 77.1569 232.461 77.1569 232.633V234.836C77.1569 235.883 77.5084 236.789 78.2116 237.555C78.9147 238.305 79.7584 238.68 80.7428 238.68C81.7428 238.68 82.5944 238.297 83.2975 237.531C84.0006 236.75 84.3522 235.852 84.3522 234.836C84.3522 233.664 83.5866 232.641 82.0553 231.766C81.8053 231.609 81.4772 231.422 81.0709 231.203C80.6803 230.969 80.2116 230.703 79.6647 230.406C79.1178 230.109 78.5866 229.82 78.0709 229.539C77.5553 229.242 77.0553 228.961 76.5709 228.695C74.8209 227.664 73.5163 226.375 72.6569 224.828C71.8131 223.266 71.3913 221.516 71.3913 219.578C71.3913 217.797 71.8288 216.188 72.7038 214.75C73.5788 213.328 74.7194 212.203 76.1256 211.375C77.5475 210.531 79.0866 210.109 80.7428 210.109C82.4459 210.109 84.0084 210.531 85.4303 211.375C86.8522 212.234 87.985 213.375 88.8288 214.797C89.6881 216.219 90.1178 217.812 90.1178 219.578V223.516C90.1178 223.641 90.0553 223.703 89.9303 223.703H84.5397C84.4147 223.703 84.3522 223.641 84.3522 223.516L84.3053 219.578C84.3053 218.453 83.9538 217.539 83.2506 216.836C82.5475 216.133 81.7116 215.781 80.7428 215.781C79.7584 215.781 78.9147 216.156 78.2116 216.906C77.5084 217.656 77.1569 218.547 77.1569 219.578C77.1569 220.625 77.3756 221.5 77.8131 222.203C78.2663 222.906 79.0866 223.578 80.2741 224.219C80.3991 224.281 80.6881 224.438 81.1413 224.688C81.5944 224.938 82.0944 225.219 82.6413 225.531C83.2038 225.828 83.7116 226.102 84.1647 226.352C84.6178 226.586 84.8913 226.727 84.985 226.773C86.5788 227.664 87.8366 228.758 88.7584 230.055C89.6959 231.352 90.1647 232.945 90.1647 234.836C90.1647 236.664 89.7428 238.305 88.8991 239.758C88.0397 241.211 86.8991 242.359 85.4772 243.203C84.0553 244.047 82.4772 244.469 80.7428 244.469ZM113.369 244.469C111.634 244.469 110.048 244.031 108.611 243.156C107.189 242.281 106.056 241.109 105.213 239.641C104.384 238.156 103.97 236.508 103.97 234.695L104.017 219.719C104.017 217.938 104.423 216.328 105.236 214.891C106.048 213.438 107.166 212.273 108.588 211.398C110.025 210.508 111.619 210.062 113.369 210.062C115.15 210.062 116.736 210.492 118.127 211.352C119.533 212.211 120.65 213.375 121.478 214.844C122.322 216.297 122.744 217.922 122.744 219.719V221.922C122.744 222.047 122.681 222.109 122.556 222.109H117.166C117.041 222.109 116.978 222.047 116.978 221.922V219.719C116.978 218.656 116.634 217.742 115.947 216.977C115.259 216.211 114.4 215.828 113.369 215.828C112.228 215.828 111.353 216.219 110.744 217C110.134 217.781 109.83 218.688 109.83 219.719V234.695C109.83 235.867 110.173 236.828 110.861 237.578C111.548 238.312 112.384 238.68 113.369 238.68C114.4 238.68 115.259 238.273 115.947 237.461C116.634 236.633 116.978 235.711 116.978 234.695V232.469C116.978 232.344 117.041 232.281 117.166 232.281H122.603C122.728 232.281 122.791 232.344 122.791 232.469V234.695C122.791 236.492 122.369 238.133 121.525 239.617C120.666 241.086 119.533 242.266 118.127 243.156C116.72 244.031 115.134 244.469 113.369 244.469ZM146.206 244.469C144.503 244.469 142.932 244.031 141.495 243.156C140.073 242.281 138.924 241.117 138.049 239.664C137.19 238.195 136.76 236.586 136.76 234.836L136.807 219.625C136.807 217.844 137.237 216.242 138.096 214.82C138.94 213.383 140.081 212.234 141.518 211.375C142.956 210.5 144.518 210.062 146.206 210.062C147.956 210.062 149.526 210.492 150.917 211.352C152.323 212.211 153.448 213.367 154.292 214.82C155.151 216.258 155.581 217.859 155.581 219.625L155.628 234.836C155.628 236.586 155.206 238.188 154.362 239.641C153.503 241.109 152.362 242.281 150.94 243.156C149.518 244.031 147.94 244.469 146.206 244.469ZM146.206 238.68C147.174 238.68 148.018 238.289 148.737 237.508C149.456 236.711 149.815 235.82 149.815 234.836L149.768 219.625C149.768 218.562 149.432 217.664 148.76 216.93C148.088 216.195 147.237 215.828 146.206 215.828C145.221 215.828 144.378 216.188 143.674 216.906C142.971 217.625 142.62 218.531 142.62 219.625V234.836C142.62 235.883 142.971 236.789 143.674 237.555C144.378 238.305 145.221 238.68 146.206 238.68ZM175.925 244H170.488C170.363 244 170.3 243.922 170.3 243.766L170.394 210.789C170.394 210.664 170.457 210.602 170.582 210.602H180.285C182.019 210.602 183.613 211.023 185.066 211.867C186.519 212.711 187.675 213.844 188.535 215.266C189.41 216.688 189.847 218.297 189.847 220.094C189.847 221.266 189.668 222.328 189.308 223.281C188.949 224.234 188.527 225.039 188.043 225.695C187.574 226.352 187.144 226.836 186.753 227.148C188.488 229.07 189.355 231.328 189.355 233.922L189.402 243.766C189.402 243.922 189.324 244 189.168 244H183.73C183.605 244 183.543 243.953 183.543 243.859V233.922C183.543 232.766 183.136 231.766 182.324 230.922C181.511 230.078 180.511 229.656 179.324 229.656H176.16L176.113 243.766C176.113 243.922 176.05 244 175.925 244ZM180.285 216.344H176.16V223.891H180.285C181.269 223.891 182.144 223.523 182.91 222.789C183.691 222.055 184.082 221.156 184.082 220.094C184.082 219.078 183.707 218.203 182.957 217.469C182.207 216.719 181.316 216.344 180.285 216.344ZM210.122 244H204.731C204.575 244 204.497 243.922 204.497 243.766L204.59 210.789C204.59 210.664 204.653 210.602 204.778 210.602H214.012C216.95 210.602 219.27 211.5 220.973 213.297C222.692 215.078 223.551 217.508 223.551 220.586C223.551 222.836 223.106 224.797 222.215 226.469C221.309 228.125 220.137 229.406 218.7 230.312C217.262 231.219 215.7 231.672 214.012 231.672H210.356V243.766C210.356 243.922 210.278 244 210.122 244ZM214.012 216.297L210.356 216.344V225.859H214.012C215.028 225.859 215.911 225.375 216.661 224.406C217.411 223.422 217.786 222.148 217.786 220.586C217.786 219.336 217.45 218.312 216.778 217.516C216.106 216.703 215.184 216.297 214.012 216.297ZM243.521 244H238.083C237.927 244 237.849 243.922 237.849 243.766L237.896 210.789C237.896 210.664 237.958 210.602 238.083 210.602H243.474C243.599 210.602 243.662 210.664 243.662 210.789L243.708 243.766C243.708 243.922 243.646 244 243.521 244ZM267.85 244.469C266.147 244.469 264.577 244.031 263.139 243.156C261.717 242.281 260.569 241.117 259.694 239.664C258.834 238.195 258.405 236.586 258.405 234.836L258.452 219.625C258.452 217.844 258.881 216.242 259.741 214.82C260.584 213.383 261.725 212.234 263.163 211.375C264.6 210.5 266.163 210.062 267.85 210.062C269.6 210.062 271.17 210.492 272.561 211.352C273.967 212.211 275.092 213.367 275.936 214.82C276.795 216.258 277.225 217.859 277.225 219.625L277.272 234.836C277.272 236.586 276.85 238.188 276.006 239.641C275.147 241.109 274.006 242.281 272.584 243.156C271.163 244.031 269.584 244.469 267.85 244.469ZM267.85 238.68C268.819 238.68 269.663 238.289 270.381 237.508C271.1 236.711 271.459 235.82 271.459 234.836L271.413 219.625C271.413 218.562 271.077 217.664 270.405 216.93C269.733 216.195 268.881 215.828 267.85 215.828C266.866 215.828 266.022 216.188 265.319 216.906C264.616 217.625 264.264 218.531 264.264 219.625V234.836C264.264 235.883 264.616 236.789 265.319 237.555C266.022 238.305 266.866 238.68 267.85 238.68ZM297.171 244H292.367C292.117 244 291.992 243.891 291.992 243.672L291.945 210.977C291.945 210.727 292.07 210.602 292.32 210.602H296.656L304.765 229.516L304.531 210.977C304.531 210.727 304.671 210.602 304.953 210.602H309.71C309.898 210.602 309.992 210.727 309.992 210.977L310.038 243.719C310.038 243.906 309.96 244 309.804 244H305.585L297.265 226.328L297.617 243.625C297.617 243.875 297.468 244 297.171 244Z" fill="white"/>
</svg>
